<?xml version="1.0" encoding="UTF-8" standalone="no"?>
<!-- Created with Inkscape (http://www.inkscape.org/) -->

<svg
   xmlns:dc="http://purl.org/dc/elements/1.1/"
   xmlns:cc="http://creativecommons.org/ns#"
   xmlns:rdf="http://www.w3.org/1999/02/22-rdf-syntax-ns#"
   xmlns:svg="http://www.w3.org/2000/svg"
   xmlns="http://www.w3.org/2000/svg"
   xmlns:sodipodi="http://sodipodi.sourceforge.net/DTD/sodipodi-0.dtd"
   xmlns:inkscape="http://www.inkscape.org/namespaces/inkscape"
   id="pincel-digital"
   version="1.1"
   viewBox="0 0 317.49999 317.50001"
   height="1200"
   width="1200"
   inkscape:version="0.92.5 (2060ec1f9f, 2020-04-08)"
   sodipodi:docname="pincel-digital.svg"
   inkscape:export-filename="C:\Users\Usuario\design\LA GOLETA diseño\politica_sustentable.png"
   inkscape:export-xdpi="99"
   inkscape:export-ydpi="99">
  <title
     id="title2926">Digital Brush</title>
  <sodipodi:namedview
     inkscape:window-maximized="1"
     inkscape:window-y="-4"
     inkscape:window-x="-4"
     inkscape:window-height="837"
     inkscape:window-width="1600"
     units="px"
     showgrid="false"
     inkscape:current-layer="layer1"
     inkscape:document-units="mm"
     inkscape:cy="722.22954"
     inkscape:cx="223.93786"
     inkscape:zoom="0.53751165"
     inkscape:pageshadow="2"
     inkscape:pageopacity="0.0"
     borderopacity="1.0"
     bordercolor="#666666"
     pagecolor="#ffffff"
     id="base"
     showguides="true"
     inkscape:guide-bbox="true">
    <inkscape:grid
       id="grid6161"
       type="xygrid" />
  </sodipodi:namedview>
  <defs
     id="defs2" />
  <metadata
     id="metadata5">
    <rdf:RDF>
      <cc:Work
         rdf:about="">
        <dc:format>image/svg+xml</dc:format>
        <dc:type
           rdf:resource="http://purl.org/dc/dcmitype/StillImage" />
        <dc:title>Digital Brush</dc:title>
        <cc:license
           rdf:resource="http://creativecommons.org/publicdomain/zero/1.0/" />
        <dc:date>06/08/21</dc:date>
        <dc:creator>
          <cc:Agent>
            <dc:title>La Goleta</dc:title>
          </cc:Agent>
        </dc:creator>
        <dc:rights>
          <cc:Agent>
            <dc:title>Public domain</dc:title>
          </cc:Agent>
        </dc:rights>
        <dc:source>Argentina</dc:source>
        <dc:language>English</dc:language>
      </cc:Work>
      <cc:License
         rdf:about="http://creativecommons.org/publicdomain/zero/1.0/">
        <cc:permits
           rdf:resource="http://creativecommons.org/ns#Reproduction" />
        <cc:permits
           rdf:resource="http://creativecommons.org/ns#Distribution" />
        <cc:permits
           rdf:resource="http://creativecommons.org/ns#DerivativeWorks" />
      </cc:License>
    </rdf:RDF>
  </metadata>
  <g
     inkscape:label="Capa 1"
     inkscape:groupmode="layer"
     id="layer1"
     transform="translate(0,20.500017)">
    <path
       style="opacity:1;fill:#3b1e1f;fill-opacity:1;stroke:none;stroke-width:0.79374999;stroke-miterlimit:4;stroke-dasharray:none;stroke-opacity:1"
       d="M 0,-20.500017 H 317.5 V 296.99998 H 0 Z"
       id="rect1961"
       inkscape:connector-curvature="0" />
    <path
       style="fill:#ffffff;fill-opacity:1;stroke:none;stroke-width:0.5485965px;stroke-linecap:butt;stroke-linejoin:miter;stroke-opacity:1"
       d="m 444.52539,408.50586 c -9.25757,-0.51431 -41.23274,43.26655 -47.68243,87.82177 -6.46471,44.65898 1.39482,81.72847 23.33868,103.67237 l 21.32617,21.32422 c -6.12472,3.081 -9.56485,7.24777 -9.57031,11.5918 0.0135,4.84165 4.29003,9.43471 11.69141,12.55664 -6.02493,20.17896 -15.96626,59.25887 -7.98633,75.21875 13.87854,27.75704 22.9414,373.04489 22.9414,373.04489 0,0 2.27714,7.3595 10.97168,7.4417 8.69454,0.082 10.97168,-7.4417 10.97168,-7.4417 0,0 6.9e-4,-340.1291 10.97266,-373.04489 7.65451,-22.96354 -0.70027,-56.55535 -6.45898,-74.80079 8.01663,-3.11236 12.71329,-7.89983 12.72851,-12.9746 -0.0127,-4.61042 -3.89259,-9.00678 -10.69531,-12.11914 6.21277,-6.85831 38.882,-46.68639 -1.06055,-86.62891 -43.88772,-43.88772 -65.36872,-64.18187 -45.53112,-109.06099 6.64874,-15.04161 -4.2664,1.24436 4.04284,-16.60112 z"
       transform="matrix(0.26458333,0,0,0.26458333,0,-20.500017)"
       id="path10993-8"
       inkscape:connector-curvature="0"
       sodipodi:nodetypes="cscccccczcccccssc" />
    <path
       style="opacity:1;fill:#ffffff;fill-opacity:1;stroke:none;stroke-width:0.18458903;stroke-miterlimit:4;stroke-dasharray:none;stroke-opacity:1"
       d="m 203.36795,7.6347001 c 0.4061,1.716741 -1.21257,5.4582479 1.7564,4.6121209 1.90058,-0.188999 5.1494,0.970235 4.16106,-2.107684 0.92973,-2.9848858 -1.48365,-2.6266612 -3.66103,-2.5044369 -0.75215,0 -1.50429,0 -2.25643,0 z m 11.92123,0 c 0.4061,1.716741 -1.21256,5.4582479 1.7564,4.6121209 1.90059,-0.188999 5.14941,0.970235 4.16107,-2.107684 0.92973,-2.9848858 -1.48365,-2.6266612 -3.66104,-2.5044369 -0.75214,0 -1.50428,0 -2.25643,0 z m 12.00857,0 c 0.4061,1.716741 -1.21256,5.4582479 1.7564,4.6121209 3.2148,0.532088 5.84224,-0.211383 2.84537,-3.999629 -0.52623,-1.3005911 -3.37646,-0.2836995 -4.60177,-0.6124919 z m -95.57453,0.00106 c 0.40603,1.7166431 -1.21242,5.4577649 1.75641,4.6116059 1.90053,-0.188873 5.14883,0.970013 4.16054,-2.107684 0.92987,-2.984855 -1.48409,-2.6258789 -3.66103,-2.5039219 -0.75197,0 -1.50394,0 -2.25592,0 z m 12.00806,0 c 0.40602,1.7166431 -1.21243,5.4577649 1.7564,4.6116059 1.88804,-0.172432 5.06513,0.944184 4.07373,-2.107684 0.91975,-2.9602593 -1.44464,-2.6363961 -3.61763,-2.5039219 -0.7375,0 -1.475,0 -2.2125,0 z m -59.779815,0.02739 c 0.406329,1.717376 -1.212919,5.4603249 1.756402,4.6147059 1.899166,-0.186973 5.139304,0.967026 4.150731,-2.107684 0.928311,-2.9827798 -1.477278,-2.6316618 -3.656389,-2.5070219 -0.750247,0 -1.500497,0 -2.250744,0 z m 11.998232,0 c 0.406329,1.717376 -1.212918,5.4603249 1.756402,4.6147059 1.890287,-0.175352 5.080081,0.948802 4.089241,-2.107684 0.92107,-2.9652035 -1.4491,-2.639168 -3.625384,-2.5070219 -0.740087,0 -1.480171,0 -2.220259,0 z m 11.936743,0 c 0.40633,1.717376 -1.21292,5.4603249 1.7564,4.6147059 1.89029,-0.175352 5.08008,0.948802 4.08924,-2.107684 0.92107,-2.9652061 -1.44911,-2.6391654 -3.62539,-2.5070219 -0.74008,0 -1.48017,0 -2.22025,0 z m 11.93674,0 c 0.40632,1.717376 -1.21292,5.4603249 1.7564,4.6147059 1.89911,-0.187031 5.13944,0.967164 4.15073,-2.107684 0.92819,-2.9824887 -1.47681,-2.6317888 -3.65587,-2.5070219 -0.75042,0 -1.50084,0 -2.25126,0 z m 35.79833,0.020664 c 0.4061,1.716741 -1.21257,5.4582479 1.7564,4.6121209 1.90054,-0.188872 5.14884,0.970013 4.16055,-2.107684 0.92972,-2.9848859 -1.48366,-2.6266612 -3.66104,-2.5044369 -0.75197,0 -1.50394,0 -2.25591,0 z m 11.92123,0 c 0.4061,1.716741 -1.21256,5.4582479 1.7564,4.6121209 1.90054,-0.188872 5.14884,0.970013 4.16055,-2.107684 0.92973,-2.9848859 -1.48365,-2.6266612 -3.66103,-2.5044369 -0.75198,0 -1.50395,0 -2.25592,0 z m 12.00806,0 c 0.4061,1.716741 -1.21257,5.4582479 1.7564,4.6121209 1.88804,-0.172431 5.06513,0.944185 4.07373,-2.107684 0.9196,-2.9602876 -1.4442,-2.6371757 -3.61763,-2.5044369 -0.7375,0 -1.475,0 -2.2125,0 z m 11.92123,0 c 0.4061,1.716741 -1.21256,5.4582479 1.7564,4.6121209 1.88804,-0.172431 5.06513,0.944185 4.07374,-2.107684 0.9196,-2.9602876 -1.4442,-2.6371757 -3.61763,-2.5044369 -0.7375,0 -1.47501,0 -2.21251,0 z m 41.74267,4.6379609 c 0,2.150427 0,4.300857 0,6.451285 4.7404,1.329335 0.51505,-4.772861 0,-6.451285 z m -23.84247,0.01188 c 0,2.146467 0,4.292934 0,6.4394 1.8353,-0.254108 4.66862,0.4898 5.91695,-0.351279 0,-2.029381 0,-4.058759 0,-6.088136 -1.97232,-3e-6 -3.94463,2e-6 -5.91695,1.5e-5 z m 11.92124,0 c 0,2.146467 0,4.292934 0,6.4394 1.8353,-0.254108 4.66862,0.4898 5.91695,-0.351279 0,-2.029381 0,-4.058759 0,-6.088136 -1.97232,-3e-6 -3.94463,2e-6 -5.91695,1.5e-5 z m -95.4872,0.0011 c 0,2.146294 0,4.292589 0,6.438884 1.80102,-0.259459 4.61644,0.49549 5.83014,-0.35128 0,-2.029203 0,-4.058404 0,-6.087604 -1.94338,0 -3.88676,0 -5.83014,0 z m 11.92124,0 c 0,2.146294 0,4.292589 0,6.438884 1.8353,-0.254109 4.66862,0.489799 5.91695,-0.35128 0,-2.029203 0,-4.058404 0,-6.087604 -1.97232,0 -3.94463,0 -5.91695,0 z m -56.730904,0.0047 c -0.899974,2.81187 2.807939,9.811242 2.954859,4.291407 -0.406847,-1.516097 1.161717,-5.007607 -1.477431,-4.291407 -0.492476,0 -0.984951,0 -1.477428,0 z m 8.98498,0 c 0,2.133032 0,4.26606 0,6.399091 1.831216,-0.254749 4.662419,0.490487 5.906617,-0.351279 0,-2.015953 0,-4.031904 0,-6.047857 -1.968873,-7e-6 -3.937744,6e-6 -5.906617,4.5e-5 z m 11.936734,0 c 0,2.133032 0,4.26606 0,6.399091 1.83122,-0.254749 4.66242,0.490487 5.90662,-0.351279 0,-2.015937 0,-4.031874 0,-6.047812 -1.96887,0 -3.93774,0 -5.90662,0 z m 11.93674,0 c 0,2.133032 0,4.26606 0,6.399091 1.83122,-0.254749 4.66242,0.490487 5.90662,-0.351279 0,-2.015937 0,-4.031874 0,-6.047812 -1.96887,0 -3.93774,0 -5.90662,0 z m 35.8495,0.04341 c 0,2.117355 0,4.234712 0,6.352066 1.80101,-0.259458 4.61643,0.495491 5.83013,-0.351279 0,-2.000263 0,-4.000524 0,-6.000787 -1.94338,0 -3.88676,0 -5.83013,0 z m 11.92123,0 c 0,2.117355 0,4.234712 0,6.352066 1.80101,-0.259458 4.61644,0.495491 5.83014,-0.351279 0,-2.000263 0,-4.000524 0,-6.000787 -1.94338,0 -3.88676,0 -5.83014,0 z m 11.92124,0 c 0,2.117355 0,4.234712 0,6.352066 1.8353,-0.254108 4.66862,0.4898 5.91695,-0.351279 0,-2.000263 0,-4.000524 0,-6.000787 -1.97232,0 -3.94463,0 -5.91695,0 z m 11.92072,0 c 0,2.117355 0,4.234712 0,6.352066 1.83548,-0.254098 4.66896,0.4898 5.91746,-0.351279 0,-2.000263 0,-4.000524 0,-6.000787 -1.97249,0 -3.94497,0 -5.91746,0 z m 11.92123,0 c 0,2.117355 0,4.234712 0,6.352066 1.83549,-0.254098 4.66897,0.4898 5.91747,-0.351279 0,-2.000263 0,-4.000524 0,-6.000787 -1.97249,0 -3.94498,0 -5.91747,0 z m -113.437515,6.41718 c 0,2.133031 0,4.26606 0,6.399091 1.831443,-0.254696 4.662691,0.490416 5.907133,-0.351279 0,-2.015938 0,-4.031875 0,-6.047812 -1.969046,0 -3.938088,0 -5.907133,0 z m 11.998232,0 c 0,2.133031 0,4.26606 0,6.399091 1.807131,-0.258509 4.625773,0.49449 5.845643,-0.351279 0,-2.015938 0,-4.031875 0,-6.047812 -1.94855,0 -3.897098,0 -5.845643,0 z m 11.936743,0 c 0,2.133031 0,4.26606 0,6.399091 1.80713,-0.258509 4.62577,0.49449 5.84564,-0.351279 0,-2.015938 0,-4.031875 0,-6.047812 -1.94855,0 -3.8971,0 -5.84564,0 z m 35.81383,0.02222 c 0,2.117355 0,4.234712 0,6.352067 1.8353,-0.254109 4.66862,0.489799 5.91695,-0.35128 0,-2.000263 0,-4.000524 0,-6.000787 -1.97232,0 -3.94463,0 -5.91695,0 z m 11.92124,0 c 0,2.117355 0,4.234712 0,6.352067 1.8353,-0.254109 4.66862,0.489799 5.91695,-0.35128 0,-2.000263 0,-4.000524 0,-6.000787 -1.97232,0 -3.94464,0 -5.91695,0 z m 11.92123,0 c 0,2.117355 0,4.234712 0,6.352067 1.8353,-0.254109 4.66862,0.489799 5.91695,-0.35128 0,-2.000263 0,-4.000524 0,-6.000787 -1.97231,0 -3.94463,0 -5.91695,0 z m 12.00806,0 c 0,2.117355 0,4.234712 0,6.352067 1.80101,-0.259459 4.61643,0.49549 5.83013,-0.35128 0,-2.000263 0,-4.000524 0,-6.000787 -1.94338,0 -3.88676,0 -5.83013,0 z m 11.92123,0 c 0,2.117355 0,4.234712 0,6.352067 1.80102,-0.259459 4.61644,0.49549 5.83014,-0.35128 0,-2.000263 0,-4.000524 0,-6.000787 -1.94338,0 -3.88676,0 -5.83014,0 z m 11.89592,0.03773 c 0,2.117354 0,4.234711 0,6.352066 1.83548,-0.254098 4.66896,0.489799 5.91746,-0.35128 0,-2.000263 0,-4.000523 0,-6.000786 -1.97249,0 -3.94497,0 -5.91746,0 z m 11.92123,0 c 0,2.117354 0,4.234711 0,6.352066 1.83549,-0.254098 4.66897,0.489799 5.91747,-0.35128 0,-2.000263 0,-4.000523 0,-6.000786 -1.97249,0 -3.94498,0 -5.91747,0 z m 12.00857,0 c 0,2.117354 0,4.234711 0,6.352066 1.80101,-0.259459 4.61643,0.49549 5.83014,-0.35128 0,-2.000263 0,-4.000523 0,-6.000786 -1.94338,0 -3.88676,0 -5.83014,0 z m -107.49576,0.0011 c 0,2.117357 0,4.234712 0,6.352069 1.8353,-0.254109 4.66862,0.489799 5.91695,-0.35128 0,-2.000263 0,-4.000526 0,-6.000789 -1.97232,0 -3.94463,0 -5.91695,0 z m 11.92123,0 c 0,2.117357 0,4.234712 0,6.352069 1.8353,-0.254109 4.66862,0.489799 5.91695,-0.35128 0,-2.000289 0,-4.000576 0,-6.000866 -1.97231,-1.6e-5 -3.94463,1.1e-5 -5.91695,7.7e-5 z m -17.90174,6.392891 c 0,2.133032 0,4.266063 0,6.399094 1.83121,-0.254749 4.66241,0.490487 5.90661,-0.35128 0,-2.015939 0,-4.031876 0,-6.047814 -1.96887,0 -3.93774,0 -5.90661,0 z m 71.638,0.0057 c 0,2.146295 0,4.292589 0,6.438884 1.8353,-0.254109 4.66862,0.489799 5.91695,-0.351279 0,-2.029204 0,-4.058404 0,-6.087605 -1.97232,0 -3.94463,0 -5.91695,0 z m 11.94707,5.29e-4 c 0,2.146467 0,4.292933 0,6.4394 1.83553,-0.254055 4.6689,0.489728 5.91747,-0.351279 0,-2.029376 0,-4.058748 0,-6.088121 -1.97249,0 -3.94498,0 -5.91747,0 z m -107.424964,5.29e-4 c 0,2.133031 0,4.266062 0,6.399094 1.831216,-0.254749 4.662419,0.490487 5.906617,-0.35128 0,-2.015974 0,-4.031945 0,-6.04792 -1.968873,-2.1e-5 -3.937744,1.6e-5 -5.906617,1.06e-4 z m 11.936734,0 c 0,2.133031 0,4.266062 0,6.399094 1.83122,-0.254749 4.66242,0.490487 5.90662,-0.35128 0,-2.01594 0,-4.031877 0,-6.047814 -1.96887,0 -3.93774,0 -5.90662,0 z m 107.45391,0.03876 c 0,2.117355 0,4.234712 0,6.352066 1.8353,-0.254108 4.66862,0.4898 5.91695,-0.351279 0,-2.000263 0,-4.000524 0,-6.000787 -1.97232,0 -3.94463,0 -5.91695,0 z m 11.92124,0 c 0,2.117355 0,4.234712 0,6.352066 1.8353,-0.254108 4.66862,0.4898 5.91695,-0.351279 0,-2.000263 0,-4.000524 0,-6.000787 -1.97232,0 -3.94463,0 -5.91695,0 z m 11.92123,0 c 0,2.117355 0,4.234712 0,6.352066 4.44005,1.369198 3.72113,-2.900301 3.44831,-6.121071 -0.70801,-0.538806 -2.42945,-0.07446 -3.44831,-0.230995 z m -107.40843,5.29e-4 c 0,2.117529 0,4.235056 0,6.352585 1.80102,-0.259458 4.61644,0.495491 5.83014,-0.351279 0,-2.000435 0,-4.000871 0,-6.001306 -1.94338,0 -3.88676,0 -5.83014,0 z m 23.83627,0.0041 c 0,2.133031 0,4.266059 0,6.39909 1.8314,-0.254738 4.66277,0.490488 5.90714,-0.351279 0,-2.015937 0,-4.031874 0,-6.047811 -1.96905,0 -3.93809,0 -5.90714,0 z m 11.93726,0 c 0,2.133031 0,4.266059 0,6.39909 1.83121,-0.254748 4.66242,0.490488 5.90662,-0.351279 0,-2.015937 0,-4.031874 0,-6.047811 -1.96888,0 -3.93775,0 -5.90662,0 z m 11.93674,0 c 0,2.133031 0,4.266059 0,6.39909 1.83121,-0.254748 4.66242,0.490488 5.90662,-0.351279 0,-2.015937 0,-4.031874 0,-6.047811 -1.96888,0 -3.93775,0 -5.90662,0 z m -35.78697,0.02687 c 0,2.117529 0,4.235056 0,6.352585 1.83531,-0.254109 4.66863,0.489799 5.91696,-0.35128 0,-2.000435 0,-4.00087 0,-6.001305 -1.97232,0 -3.94464,0 -5.91696,0 z m 89.56818,6.407361 c 0,2.146467 0,4.292934 0,6.4394 1.80101,-0.259458 4.61643,0.495491 5.83014,-0.351279 0,-2.029412 0,-4.058822 0,-6.088232 -1.94338,-2.1e-5 -3.88676,1.6e-5 -5.83014,1.11e-4 z m -107.49576,0.0011 c 0,2.146466 0,4.292933 0,6.4394 1.8353,-0.254109 4.66862,0.489799 5.91695,-0.35128 0,-2.029375 0,-4.058748 0,-6.08812 -1.97232,0 -3.94463,0 -5.91695,0 z m 59.69661,0.0026 c 0,2.146466 0,4.292933 0,6.4394 1.83549,-0.254098 4.66897,0.489799 5.91747,-0.35128 0,-2.029375 0,-4.058748 0,-6.08812 -1.97249,0 -3.94498,0 -5.91747,0 z m 11.94759,0.0011 c 0,2.146467 0,4.292936 0,6.439403 1.8353,-0.254109 4.66862,0.489799 5.91695,-0.35128 0,-2.029375 0,-4.058748 0,-6.088123 -1.97231,0 -3.94463,0 -5.91695,0 z m 11.92124,0 c 0,2.146467 0,4.292936 0,6.439403 1.8353,-0.254109 4.66862,0.489799 5.91695,-0.35128 0,-2.029375 0,-4.058748 0,-6.088123 -1.97232,0 -3.94463,0 -5.91695,0 z m 11.95689,0.0062 c 0,2.146295 0,4.29259 0,6.438884 1.8353,-0.254108 4.66862,0.4898 5.91695,-0.351279 0,-2.029203 0,-4.058404 0,-6.087605 -1.97231,0 -3.94463,0 -5.91695,0 z m -47.77641,0.0155 c 0,2.133031 0,4.266059 0,6.39909 1.83122,-0.254748 4.66242,0.490488 5.90662,-0.351279 0,-2.015937 0,-4.031874 0,-6.047811 -1.96888,0 -3.93775,0 -5.90662,0 z m -23.85901,0.0016 c 0,2.117527 0,4.235056 0,6.352582 1.8353,-0.254108 4.66862,0.4898 5.91695,-0.351279 0,-2.000435 0,-4.000868 0,-6.001303 -1.97232,0 -3.94463,0 -5.91695,0 z m 11.92124,0 c 0,2.117527 0,4.235056 0,6.352582 1.8353,-0.254108 4.66862,0.4898 5.91695,-0.351279 0,-2.000435 0,-4.000868 0,-6.001303 -1.97232,0 -3.94463,0 -5.91695,0 z m -23.88485,0.0041 c 0,2.117354 0,4.234711 0,6.352066 1.8353,-0.254108 4.66862,0.489799 5.91695,-0.351279 0,-2.000264 0,-4.000524 0,-6.000787 -1.97231,0 -3.94463,0 -5.91695,0 z m -23.87244,0.0057 c 0,2.133031 0,4.266063 0,6.399094 1.83139,-0.254739 4.66276,0.490487 5.90713,-0.35128 0,-2.015939 0,-4.031877 0,-6.047814 -1.96905,0 -3.93809,0 -5.90713,0 z m -11.903153,0.0067 c 0,2.133031 0,4.266059 0,6.39909 1.807131,-0.258508 4.625773,0.494491 5.845643,-0.351279 0,-2.015937 0,-4.031874 0,-6.047811 -1.94855,0 -3.897098,0 -5.845643,0 z m -6.600113,0.0093 c -5.864328,-2.494217 1.128162,6.934274 0.488148,3.072153 -0.205578,-0.79576 0.5772,-3.263294 -0.488148,-3.072153 z m 48.335036,6.413563 c 0,2.146467 0,4.292933 0,6.4394 1.8353,-0.254109 4.66862,0.489799 5.91695,-0.351279 0,-2.029376 0,-4.058748 0,-6.088121 -1.97232,0 -3.94464,0 -5.91695,0 z m 12.00805,0 c 0,2.146467 0,4.292933 0,6.4394 1.80101,-0.259458 4.61643,0.49549 5.83013,-0.351279 0,-2.029376 0,-4.058748 0,-6.088121 -1.94337,0 -3.88675,0 -5.83013,0 z m 11.92124,0 c 0,2.146467 0,4.292933 0,6.4394 1.83552,-0.254056 4.66889,0.489728 5.91746,-0.351279 0,-2.029376 0,-4.058748 0,-6.088121 -1.97249,0 -3.94497,0 -5.91746,0 z m -35.80557,0.0041 c 0,2.146295 0,4.29259 0,6.438885 1.80101,-0.259459 4.61643,0.49549 5.83013,-0.35128 0,-2.02928 0,-4.058557 0,-6.087837 -1.94337,-4.8e-5 -3.88675,3.1e-5 -5.83013,2.32e-4 z m 47.7299,0.01498 c 0,2.146467 0,4.292933 0,6.4394 1.8353,-0.254109 4.66862,0.489799 5.91695,-0.351279 0,-2.029376 0,-4.058748 0,-6.088121 -1.97231,0 -3.94463,0 -5.91695,0 z m 11.92124,0 c -0.6196,4.353372 0.53391,3.869084 3.92044,1.559041 4.58261,-1.30938 -0.26489,-1.921653 -2.36709,-1.559041 -0.51778,0 -1.03557,0 -1.55335,0 z m 11.94707,0.0011 c -0.12557,2.653506 8.42243,3.231198 5.56619,0 -1.8554,0 -3.71079,0 -5.56619,0 z m 11.91245,0.0057 c 0.0521,2.508514 -0.81592,5.707292 2.99917,5.465778 3.8233,3.744508 4.04642,-5.244756 1.9084,-5.465778 -1.63586,0 -3.27171,0 -4.90757,0 z m 11.96568,0 c 0,2.131996 0,4.263996 0,6.395992 1.8353,-0.254108 4.66862,0.4898 5.91695,-0.351279 0,-2.01499 0,-4.029977 0,-6.044965 -1.97232,-5e-5 -3.94463,3.5e-5 -5.91695,2.52e-4 z m -119.39994,0.0052 c -1.78016,4.491749 3.68454,5.271032 5.89313,3.987459 0.5978,-3.002418 -0.0396,-4.813552 -3.29111,-3.987459 -0.86734,0 -1.73468,0 -2.60202,0 z m -7.969027,0.0067 c -4.825235,-0.848159 4.149029,5.091091 1.972479,0 -0.657492,0 -1.314987,0 -1.972479,0 z m 139.298987,0.02119 c -1.27495,4.128161 2.76955,-0.0034 0.34643,0 z m -119.32966,0.0011 c 0,2.117355 0,4.234712 0,6.352066 1.80101,-0.259458 4.61643,0.495491 5.83013,-0.351279 0,-2.000263 0,-4.000524 0,-6.000787 -1.94338,0 -3.88676,0 -5.83013,0 z m 107.35623,6.405293 c -1.35284,0.129897 -7.79206,-0.325491 -3.7888,0.430085 1.02967,-0.225991 4.33585,1.81547 3.7888,-0.430085 z m 6.00377,0 c 0.28897,1.004265 1.95241,-0.485646 0,0 z m -47.74644,0.03669 c 0,2.131825 0,4.263652 0,6.395477 3.79117,1.405869 2.84774,-5.524212 3.37788,-6.388756 -1.12594,-0.01014 -2.25191,-0.0058 -3.37788,-0.0067 z m -66.06625,0.0088 c -4.7114,-1.057323 2.62897,4.285387 0,0 z m 18.33532,0.0155 c 0,2.117355 0,4.234712 0,6.352066 1.8353,-0.254108 4.66862,0.4898 5.91695,-0.351279 0,-2.000263 0,-4.000524 0,-6.000787 -1.97232,0 -3.94464,0 -5.91695,0 z m 11.92123,0 c 0,2.117355 0,4.234712 0,6.352066 1.8353,-0.254108 4.66862,0.4898 5.91695,-0.351279 0,-2.000263 0,-4.000524 0,-6.000787 -1.97232,0 -3.94463,0 -5.91695,0 z m 11.92124,0 c 0,2.117355 0,4.234712 0,6.352066 1.8353,-0.254108 4.66862,0.4898 5.91695,-0.351279 0,-2.000263 0,-4.000524 0,-6.000787 -1.97232,0 -3.94463,0 -5.91695,0 z m 11.92123,0 c 0,2.117355 0,4.234712 0,6.352066 1.8353,-0.254108 4.66862,0.4898 5.91695,-0.351279 0,-2.000263 0,-4.000524 0,-6.000787 -1.97231,0 -3.94463,0 -5.91695,0 z m -47.72732,0.0041 c 0,2.117354 0,4.234711 0,6.352066 1.83553,-0.254056 4.6689,0.489728 5.91747,-0.351279 0,-2.000264 0,-4.000524 0,-6.000787 -1.97249,0 -3.94498,0 -5.91747,0 z m 17.89814,6.405292 c 0,2.133031 0,4.266062 0,6.399093 1.83144,-0.254695 4.66269,0.490416 5.90713,-0.351279 0,-2.01594 0,-4.031877 0,-6.047814 -1.96904,0 -3.93809,0 -5.90713,0 z m 11.9326,0.01757 c 0,2.146467 0,4.292934 0,6.4394 1.8353,-0.254108 4.66862,0.4898 5.91695,-0.351279 0,-2.029375 0,-4.058748 0,-6.088121 -1.97231,0 -3.94463,0 -5.91695,0 z m 12.00805,0 c 0,2.146467 0,4.292934 0,6.4394 1.80102,-0.259458 4.61644,0.495491 5.83014,-0.351279 0,-2.029375 0,-4.058748 0,-6.088121 -1.94338,0 -3.88676,0 -5.83014,0 z m 11.92124,0 c 0,2.146467 0,4.292934 0,6.4394 1.80101,-0.259458 4.61643,0.495491 5.83014,-0.351279 0,-2.029375 0,-4.058748 0,-6.088121 -1.94338,0 -3.88676,0 -5.83014,0 z m -55.5966,0.01601 c -2.61345,-0.881301 -1.12201,7.502205 1.74976,6.352069 0,-2.117357 0,-4.234712 0,-6.352069 -0.58326,0 -1.16651,0 -1.74976,0 z m 7.8021,0.07235 c 0.23219,1.976946 -0.46522,4.883478 0.35128,6.276102 1.64173,-0.444235 5.07292,0.900983 5.55534,-0.702561 -0.51336,-1.695762 1.14051,-5.558772 -1.05384,-5.573541 -1.6176,0 -3.23519,0 -4.85278,0 z m -5.90661,6.399094 c 0,2.133031 0,4.266062 0,6.399093 1.78268,-0.262289 4.58837,0.498438 5.78362,-0.351279 0,-2.01594 0,-4.031877 0,-6.047814 -1.92787,0 -3.85575,0 -5.78362,0 z m 11.87111,0.01704 c 0,2.133031 0,4.266062 0,6.399093 1.83121,-0.254748 4.66242,0.490488 5.90661,-0.351279 0,-2.01594 0,-4.031877 0,-6.047814 -1.96887,0 -3.93774,0 -5.90661,0 z m 11.93673,0 c 0,2.133031 0,4.266062 0,6.399093 1.83122,-0.254748 4.66242,0.490488 5.90662,-0.351279 0,-2.01594 0,-4.031877 0,-6.047814 -1.96887,0 -3.93774,0 -5.90662,0 z m 11.96827,0.0217 c 0.17957,1.809625 -0.34074,4.484608 0.23926,5.799129 3.35397,-0.122565 6.88169,1.89897 5.67769,-2.974371 0.80424,-2.849076 -0.8584,-3.231272 -3.30976,-2.824756 -0.86906,0 -1.73813,-2e-6 -2.60719,-2e-6 z m 11.92123,0 c 0,2.117357 0,4.234712 0,6.352069 1.8353,-0.254109 4.66862,0.489799 5.91695,-0.35128 0,-2.000263 0,-4.000526 0,-6.000789 -1.97231,0 -3.94463,0 -5.91695,0 z m 11.92124,0 c 0,2.117357 0,4.234712 0,6.352069 4.79535,1.631833 3.11328,-4.052353 2.07441,-6.352069 -0.69147,0 -1.38294,0 -2.07441,0 z m -61.01953,6.438884 c 0.59679,2.010211 -1.78566,6.858188 1.27382,6.399093 0,-2.133031 0,-4.266062 0,-6.399093 -0.42461,0 -0.84921,0 -1.27382,0 z m 7.30343,0 c 0,2.133031 0,4.266062 0,6.399093 1.83144,-0.254696 4.66269,0.490416 5.90713,-0.351279 0,-2.01594 0,-4.031877 0,-6.047814 -1.96904,0 -3.93809,0 -5.90713,0 z m 11.93674,0 c 0,2.133031 0,4.266062 0,6.399093 2.11459,0.124032 4.19913,0.132115 5.90455,-1.322916 -0.53951,-1.503522 1.17261,-5.256562 -1.0512,-5.076177 -1.61778,0 -3.23557,0 -4.85335,0 z m 11.93674,0 c -1.4432,3.83939 7.4629,-1.293847 1.72559,4.21e-4 -0.5752,-1.41e-4 -1.1504,-2.81e-4 -1.72559,-4.21e-4 z m 12.00391,5.29e-4 c 0.4071,2.466028 -1.19813,7.593512 2.83207,6.352069 2.71393,0.655891 3.52191,-0.594156 2.99807,-3.176035 0.51002,-2.540388 -0.1701,-3.890639 -2.91507,-3.176034 -0.97169,0 -1.94338,0 -2.91507,0 z m 11.92124,0 c 0,2.117357 0,4.234712 0,6.352069 1.80101,-0.259458 4.61643,0.49549 5.83014,-0.351279 0,-2.000264 0,-4.000527 0,-6.00079 -1.94338,0 -3.88676,0 -5.83014,0 z m 5.91747,6.435783 c 0,2.147501 0,4.295 0,6.442501 1.95706,-0.350845 5.98199,1.223013 4.7689,-2.105104 1.0688,-4.301572 -1.49087,-4.743498 -4.7231,-4.336902 z m -11.92124,0.0031 c 0,2.146466 0,4.292933 0,6.4394 1.8353,-0.254109 4.66862,0.489799 5.91695,-0.35128 0,-2.029454 0,-4.058906 0,-6.088361 -1.97231,-4.8e-5 -3.94463,3.4e-5 -5.91695,2.41e-4 z m -47.7361,0.01706 c 0,2.133031 0,4.266063 0,6.399094 1.83122,-0.254749 4.66242,0.490487 5.90661,-0.35128 0,-2.015939 0,-4.031877 0,-6.047814 -1.96887,0 -3.93774,0 -5.90661,0 z m 11.93674,0 c -0.057,3.226073 -0.64634,7.711819 3.34974,3.603607 3.64043,-0.671814 3.21712,-4.891474 -0.39487,-3.603607 -0.98496,0 -1.96992,0 -2.95487,0 z m -13.04417,6.460588 c -2.44507,0.747676 -2.81136,8.897599 1.04593,6.047814 0,-2.016024 0,-4.032046 0,-6.048068 -0.34864,8.5e-5 -0.69728,1.7e-4 -1.04593,2.54e-4 z m 7.07554,0 c -1.55505,5.4268 3.72364,1.123421 4.53008,0 -1.51003,0 -3.02005,0 -4.53008,0 z m 38.98315,0.04858 c -5.35298,-1.132742 -2.05937,9.046247 2.69751,6.352066 0,-2.117439 0,-4.234881 0,-6.35232 -0.89917,8.4e-5 -1.79834,1.69e-4 -2.69751,2.54e-4 z m 8.78861,0 c 0,2.117354 0,4.234711 0,6.352066 1.80101,-0.259458 4.61643,0.49549 5.83014,-0.351279 0,-2.000348 0,-4.000693 0,-6.001041 -1.94338,-5.1e-5 -3.88676,3.4e-5 -5.83014,2.54e-4 z m -5.99653,6.460069 c -0.0137,2.449274 -0.65315,5.578385 3.11481,5.092075 3.89707,1.763036 2.63074,-2.254982 2.80577,-4.54565 -0.84777,-1.257966 -4.02323,-0.188232 -5.77079,-0.546425 z m 11.92433,0 c -0.62827,3.656859 0.87705,5.341199 3.29512,1.248582 2.30629,-2.452338 -2.46872,-0.7346 -3.29512,-1.248582 z m -59.66767,0.01344 c -0.89692,3.253547 4.13243,-1.254927 0,0 z"
       id="path2689"
       inkscape:connector-curvature="0" />
  </g>
</svg>
